<svg width="16" height="16" fill="none" xmlns="http://www.w3.org/2000/svg"><path fill-rule="evenodd" clip-rule="evenodd" d="M2.185 2.124c0-.115.093-.209.208-.209h3.334c.115 0 .208.094.208.209v3.333a.208.208 0 0 1-.208.208H2.393a.208.208 0 0 1-.208-.208V2.124ZM2.393.665c-.805 0-1.458.653-1.458 1.459v3.333c0 .805.653 1.458 1.458 1.458h3.334c.805 0 1.458-.653 1.458-1.458V2.124c0-.806-.653-1.459-1.458-1.459H2.393Zm8.125 1.459c0-.115.093-.209.209-.209h3.333c.115 0 .208.094.208.209v3.333a.208.208 0 0 1-.208.208h-3.333a.208.208 0 0 1-.209-.208V2.124Zm.209-1.459c-.806 0-1.459.653-1.459 1.459v3.333c0 .805.653 1.458 1.459 1.458h3.333c.805 0 1.458-.653 1.458-1.458V2.124c0-.806-.653-1.459-1.458-1.459h-3.333ZM2.393 10.25a.208.208 0 0 0-.208.208v3.333c0 .115.093.209.208.209h3.334a.208.208 0 0 0 .208-.209v-3.333a.208.208 0 0 0-.208-.208H2.393Zm-1.458.208c0-.805.653-1.458 1.458-1.458h3.334c.805 0 1.458.653 1.458 1.458v3.333c0 .806-.653 1.459-1.458 1.459H2.393A1.458 1.458 0 0 1 .935 13.79v-3.333Zm9.583 0c0-.115.093-.208.209-.208h3.333c.115 0 .208.093.208.208v3.333a.208.208 0 0 1-.208.209h-3.333a.208.208 0 0 1-.209-.209v-3.333Zm.209-1.458c-.806 0-1.459.653-1.459 1.458v3.333c0 .806.653 1.459 1.459 1.459h3.333c.805 0 1.458-.653 1.458-1.459v-3.333c0-.805-.653-1.458-1.458-1.458h-3.333Z" fill="#5F6980"/></svg>