<svg width="12" height="17" fill="none" xmlns="http://www.w3.org/2000/svg"><path fill-rule="evenodd" clip-rule="evenodd" d="M2.945 4.667a2.708 2.708 0 1 1 5.417 0 2.708 2.708 0 0 1-5.417 0ZM5.654.709a3.958 3.958 0 1 0 0 7.916 3.958 3.958 0 0 0 0-7.916ZM2.072 11.832a2.708 2.708 0 0 1 1.915-.793H7.32a2.708 2.708 0 0 1 2.709 2.708v1.667a.625.625 0 0 0 1.25 0v-1.667A3.959 3.959 0 0 0 7.32 9.79H3.987a3.958 3.958 0 0 0-3.958 3.958v1.667a.625.625 0 0 0 1.25 0v-1.667c0-.718.285-1.407.793-1.915Z" fill="#5F6980"/></svg>