<svg width="17" height="16" fill="none" xmlns="http://www.w3.org/2000/svg"><path fill-rule="evenodd" clip-rule="evenodd" d="M8.918.031c-.113 0-.224.002-.336.007a.47.47 0 0 0-.211.012 7.97 7.97 0 0 0 0 15.9.47.47 0 0 0 .211.012 8.136 8.136 0 0 0 .672 0 .47.47 0 0 0 .211-.011 7.97 7.97 0 0 0 0-15.902.47.47 0 0 0-.211-.011A8.107 8.107 0 0 0 8.918.03Zm.155.94a7.172 7.172 0 0 0-.31 0 13.68 13.68 0 0 0-1.616 4.06h3.542A13.68 13.68 0 0 0 9.073.971Zm1.79 4.998h-3.89a13.716 13.716 0 0 0 0 4.062h3.89a13.716 13.716 0 0 0 0-4.062Zm.947 4.062a14.66 14.66 0 0 0 0-4.062h3.841A7.03 7.03 0 0 1 15.95 8c0 .706-.104 1.388-.298 2.031h-3.84Zm-1.122.938h-3.54c.312 1.41.85 2.782 1.615 4.06a7.256 7.256 0 0 0 .31 0 13.678 13.678 0 0 0 1.615-4.06Zm-.47 3.942a14.61 14.61 0 0 0 1.43-3.942h3.645a7.042 7.042 0 0 1-5.076 3.942Zm1.43-9.88a14.613 14.613 0 0 0-1.43-3.942 7.042 7.042 0 0 1 5.075 3.942h-3.645Zm-4.03 9.88a14.61 14.61 0 0 1-1.43-3.942H2.543a7.042 7.042 0 0 0 5.075 3.942Zm-1.593-4.88a14.655 14.655 0 0 1 0-4.062h-3.84A7.031 7.031 0 0 0 1.887 8c0 .706.104 1.388.298 2.031h3.84Zm.163-5c.281-1.36.758-2.688 1.43-3.942A7.042 7.042 0 0 0 2.543 5.03h3.645Z" fill="#5F6980"/></svg>