<svg width="18" height="16" fill="none" xmlns="http://www.w3.org/2000/svg"><path fill-rule="evenodd" clip-rule="evenodd" d="M3.14.665A2.292 2.292 0 0 0 .85 2.957v10a2.292 2.292 0 0 0 2.292 2.292h5.833a2.292 2.292 0 0 0 2.292-2.292V11.29a.625.625 0 0 0-1.25 0v1.667a1.042 1.042 0 0 1-1.042 1.042H3.141a1.042 1.042 0 0 1-1.042-1.042v-10a1.042 1.042 0 0 1 1.042-1.042h5.833a1.042 1.042 0 0 1 1.042 1.042v1.667a.625.625 0 1 0 1.25 0V2.957A2.292 2.292 0 0 0 8.974.665H3.141Zm11.276 4.35a.625.625 0 0 0-.884.884l1.433 1.433H4.807a.625.625 0 0 0 0 1.25h10.158l-1.433 1.433a.625.625 0 1 0 .884.884l2.497-2.497a.622.622 0 0 0 .003-.887l-2.5-2.5Z" fill="#5F6980"/></svg>