<svg width="20" height="20" fill="none" xmlns="http://www.w3.org/2000/svg"><path fill-rule="evenodd" clip-rule="evenodd" d="M3.4 5.443c.13-.427.526-.737.996-.737h11.666c.47 0 .867.31.997.737l-6.83 4.553L3.4 5.443Zm-1.296.293V14.08a2.292 2.292 0 0 0 2.292 2.291h11.666a2.292 2.292 0 0 0 2.292-2.291V5.756m-1.25 1.16v7.165c0 .575-.466 1.041-1.041 1.041H4.396a1.042 1.042 0 0 1-1.042-1.041V6.915l6.528 4.352c.21.14.484.14.694 0l6.528-4.352Zm1.25-1.18a2.292 2.292 0 0 0-2.291-2.28H4.396a2.292 2.292 0 0 0-2.292 2.28" fill="#5F6980"/></svg>