<svg width="18" height="14" fill="none" xmlns="http://www.w3.org/2000/svg"><path fill-rule="evenodd" clip-rule="evenodd" d="M8.71 3.458a1.667 1.667 0 1 1 3.333 0 1.667 1.667 0 0 1-3.333 0Zm-1.183.625H1.418a.625.625 0 1 1 0-1.25h6.109a2.918 2.918 0 0 1 5.699 0h3.192a.625.625 0 0 1 0 1.25h-3.192a2.918 2.918 0 0 1-5.7 0ZM3.71 10.125a1.667 1.667 0 1 1 3.333 0 1.667 1.667 0 0 1-3.333 0Zm1.666 2.916a2.918 2.918 0 0 1-2.85-2.291H1.419a.625.625 0 0 1 0-1.25h1.109a2.918 2.918 0 0 1 5.699 0h8.192a.625.625 0 0 1 0 1.25H8.226a2.918 2.918 0 0 1-2.85 2.291Z" fill="#5F6980"/></svg>