<svg width="1044" height="242" fill="none" xmlns="http://www.w3.org/2000/svg"><path d="M1 136.467c28.27-5.335 203.573 10.672 238.285-9.891 43.389-25.704 77.745-108.25 116.844-61.886 41.924 49.714 112.811-106.567 170.915-50.276 26.251 25.432 82.793 103.624 138.61 103.624 45.362 0 45.298-73.627 136.023-73.627 90.724 0 82.569 92.056 242.323 92.056" stroke="#20C997" stroke-width="3"/><path d="M239.285 126.576C204.573 147.139 29.269 131.132 1 136.467V242h1043V136.467c-159.754 0-151.599-92.056-242.323-92.056-90.725 0-90.661 73.627-136.023 73.627-55.817 0-112.359-78.192-138.61-103.624-58.104-56.29-128.991 99.99-170.915 50.276-39.099-46.364-73.455 36.182-116.844 61.886Z" fill="url(#a)"/><path d="M127.483 117.52C93.235 133.621 28.891 146.001 1 150.178V242h1043V93.977c-157.618 0-159.563 96.453-249.075 96.453-89.511 0-93.403-103.84-138.158-103.84-44.756 0-33.08 78.777-136.213 75.36-103.132-3.418-153.726-37.215-215.994-67.973-61.934-30.593-133.492 3.051-176.383 23.217l-.694.326Z" fill="url(#b)"/><path d="M1 150.178c27.891-4.177 92.235-16.557 126.483-32.658 42.81-20.126 114.808-54.302 177.077-23.543 62.268 30.758 112.862 64.555 215.994 67.973 103.133 3.417 91.457-74.868 136.213-74.868 44.755 0 48.647 103.348 138.158 103.348 89.512 0 91.457-96.453 249.075-96.453" stroke="#679CF6" stroke-width="3"/><defs><linearGradient id="a" x1="522.5" y1="2" x2="522.5" y2="242" gradientUnits="userSpaceOnUse"><stop stop-color="#20C997" stop-opacity=".13"/><stop offset="1" stop-color="#20C997" stop-opacity="0"/></linearGradient><linearGradient id="b" x1="522.5" y1="81.672" x2="522.5" y2="242" gradientUnits="userSpaceOnUse"><stop stop-color="#4285F4" stop-opacity=".25"/><stop offset="1" stop-color="#4285F4" stop-opacity="0"/></linearGradient></defs></svg>