<svg width="24" height="24" fill="none" xmlns="http://www.w3.org/2000/svg"><path fill-rule="evenodd" clip-rule="evenodd" d="M5.022 4.948a.25.25 0 0 1 .25-.25h4a.25.25 0 0 1 .25.25v4a.25.25 0 0 1-.25.25h-4a.25.25 0 0 1-.25-.25v-4Zm.25-1.75a1.75 1.75 0 0 0-1.75 1.75v4c0 .966.784 1.75 1.75 1.75h4a1.75 1.75 0 0 0 1.75-1.75v-4a1.75 1.75 0 0 0-1.75-1.75h-4Zm9.75 1.75a.25.25 0 0 1 .25-.25h4a.25.25 0 0 1 .25.25v4a.25.25 0 0 1-.25.25h-4a.25.25 0 0 1-.25-.25v-4Zm.25-1.75a1.75 1.75 0 0 0-1.75 1.75v4c0 .966.784 1.75 1.75 1.75h4a1.75 1.75 0 0 0 1.75-1.75v-4a1.75 1.75 0 0 0-1.75-1.75h-4Zm-10 11.5a.25.25 0 0 0-.25.25v4c0 .138.112.25.25.25h4a.25.25 0 0 0 .25-.25v-4a.25.25 0 0 0-.25-.25h-4Zm-1.75.25c0-.966.784-1.75 1.75-1.75h4c.967 0 1.75.784 1.75 1.75v4a1.75 1.75 0 0 1-1.75 1.75h-4a1.75 1.75 0 0 1-1.75-1.75v-4Zm11.5 0a.25.25 0 0 1 .25-.25h4a.25.25 0 0 1 .25.25v4a.25.25 0 0 1-.25.25h-4a.25.25 0 0 1-.25-.25v-4Zm.25-1.75a1.75 1.75 0 0 0-1.75 1.75v4c0 .966.784 1.75 1.75 1.75h4a1.75 1.75 0 0 0 1.75-1.75v-4a1.75 1.75 0 0 0-1.75-1.75h-4Z" fill="#5F6980"/></svg>